# File created by Blade
# Date/Time:  Thu Jan 22 19:29:47 2015
#---------------------------------------------------------
:version 1.10
:name HOM
:units
  mass 1.0
  length 1.000000
  angle deg
:documentation
     Acclaim Skeleton File
:root
   axis xyz
   order TX TY TZ RX RY RZ
   position 0.000000 0.000000 0.000000
   orientation 0 0 0
:bonedata
   begin
      id 1
      name RightUpLeg_dum
      direction -1.000000 0.000000 0.000000
      length 4.478084
      axis 0.0 0.0 0.0 xyz
   end
   begin
      id 2
      name LeftUpLeg_dum
      direction 1.000000 0.000000 0.000000
      length 4.478084
      axis 0.0 0.0 0.0 xyz
   end
   begin
      id 3
      name Spine_dum
      direction 0.000000 1.000000 0.000000
      length 6.068208
      axis 0.0 0.0 0.0 xyz
   end
   begin
      id 4
      name RightUpLeg
      direction 0.000000 -1.000000 0.000000
      length 16.405774
      axis 0.0 0.0 0.0 xyz
      dof rx ry rz
   end
   begin
      id 5
      name RightLeg
      direction 0.000000 -1.000000 0.000000
      length 14.644143
      axis 0.0 0.0 0.0 xyz
      dof rx ry rz
   end
   begin
      id 6
      name RightFoot
      direction 0.000000 -0.258819 0.965926
      length 5.806150
      axis 15.0 0.0 0.0 xyz
      dof rx ry rz
   end
   begin
      id 7
      name RightToeBase
      direction 0.000000 0.000000 1.000000
      length 2.952750
      axis 0.0 0.0 0.0 xyz
      dof rx ry rz
   end
   begin
      id 8
      name LeftUpLeg
      direction 0.000000 -1.000000 0.000000
      length 16.405774
      axis 0.0 0.0 0.0 xyz
      dof rx ry rz
   end
   begin
      id 9
      name LeftLeg
      direction 0.000000 -1.000000 0.000000
      length 14.644143
      axis 0.0 0.0 0.0 xyz
      dof rx ry rz
   end
   begin
      id 10
      name LeftFoot
      direction 0.000000 -0.258819 0.965926
      length 5.806150
      axis 15.0 0.0 0.0 xyz
      dof rx ry rz
   end
   begin
      id 11
      name LeftToeBase
      direction 0.000000 0.000000 1.000000
      length 2.952750
      axis 0.0 0.0 0.0 xyz
      dof rx ry rz
   end
   begin
      id 12
      name Spine
      direction 0.000000 1.000000 0.000000
      length 0.000000
      axis 0.0 0.0 0.0 xyz
      dof rx ry rz
   end
   begin
      id 13
      name Spine_dum1
      direction 0.000000 1.000000 0.000000
      length 10.013923
      axis 0.0 0.0 0.0 xyz
   end
   begin
      id 14
      name Spine_dum2
      direction 0.000000 1.000000 0.000000
      length 10.013923
      axis 0.0 0.0 0.0 xyz
   end
   begin
      id 15
      name Spine_dum3
      direction 0.000000 1.000000 0.000000
      length 15.777476
      axis 0.0 0.0 0.0 xyz
   end
   begin
      id 16
      name RightShoulder
      direction -1.000000 0.000000 0.000000
      length 7.190220
      axis 0.0 0.0 90.0 xyz
      dof rx ry rz
   end
   begin
      id 17
      name RightArm
      direction -1.000000 0.000000 0.000000
      length 10.177469
      axis 0.0 0.0 90.0 xyz
      dof rx ry rz
   end
   begin
      id 18
      name RightForeArm
      direction -1.000000 0.000000 0.000000
      length 8.392114
      axis 0.0 0.0 90.0 xyz
      dof ry rz rx
   end
   begin
      id 19
      name RightHand
      direction -1.000000 0.000000 0.000000
      length 0.000000
      axis 0.0 0.0 90.0 xyz
      dof rx ry rz
   end
   begin
      id 20
      name RightHand_dum1
      direction -1.000000 0.000000 0.000000
      length 3.937000
      axis 0.0 0.0 90.0 xyz
   end
   begin
      id 21
      name RightHand_dum2
      direction 0.000000 0.000000 0.000000
      length 0.000000
      axis 0.0 0.0 90.0 xyz
   end
   begin
      id 22
      name RightHandThumb1
      direction 0.000000 0.000000 1.000000
      length 3.937000
      axis 0.0 0.0 90.0 xyz
      dof rx rz ry
   end
   begin
      id 23
      name LeftShoulder
      direction 1.000000 0.000000 0.000000
      length 7.190220
      axis 0.0 0.0 -90.0 xyz
      dof rx ry rz
   end
   begin
      id 24
      name LeftArm
      direction 1.000000 0.000000 0.000000
      length 10.177469
      axis 0.0 0.0 -90.0 xyz
      dof rx ry rz
   end
   begin
      id 25
      name LeftForeArm
      direction 1.000000 0.000000 0.000000
      length 8.392114
      axis 0.0 0.0 -90.0 xyz
      dof ry rz rx
   end
   begin
      id 26
      name LeftHand
      direction 1.000000 0.000000 0.000000
      length 0.000000
      axis 0.0 0.0 -90.0 xyz
      dof rx ry rz
   end
   begin
      id 27
      name LeftHand_dum1
      direction 1.000000 0.000000 0.000000
      length 3.937000
      axis 0.0 0.0 -90.0 xyz
   end
   begin
      id 28
      name LeftHand_dum2
      direction 0.000000 0.000000 0.000000
      length 0.000000
      axis 0.0 0.0 -90.0 xyz
   end
   begin
      id 29
      name LeftHandThumb1
      direction 0.000000 0.000000 1.000000
      length 3.937000
      axis 0.0 0.0 -90.0 xyz
      dof rx rz ry
   end
   begin
      id 30
      name Head
      direction 0.000000 1.000000 0.000000
      length 4.527550
      axis 0.0 0.0 0.0 xyz
      dof rx ry rz
   end
:hierarchy
   begin
      root RightUpLeg_dum LeftUpLeg_dum Spine_dum
      RightUpLeg_dum RightUpLeg
      LeftUpLeg_dum LeftUpLeg
      Spine_dum Spine
      RightUpLeg RightLeg
      RightLeg RightFoot
      RightFoot RightToeBase
      LeftUpLeg LeftLeg
      LeftLeg LeftFoot
      LeftFoot LeftToeBase
      Spine Spine_dum1 Spine_dum2 Spine_dum3
      Spine_dum1 RightShoulder
      Spine_dum2 LeftShoulder
      Spine_dum3 Head
      RightShoulder RightArm
      RightArm RightForeArm
      RightForeArm RightHand
      RightHand RightHand_dum1 RightHand_dum2
      RightHand_dum2 RightHandThumb1
      LeftShoulder LeftArm
      LeftArm LeftForeArm
      LeftForeArm LeftHand
      LeftHand LeftHand_dum1 LeftHand_dum2
      LeftHand_dum2 LeftHandThumb1
   end

# File created by Blade
# Date/Time:  Thu Jan 22 19:29:39 2015
# Frame Rate: 120.000 fps
#------------------------------------------------------
:FULLY-SPECIFIED
:DEGREES
66
root -2.320604 33.153071 0.512038 7.841869 -3.437689 3.100008
RightUpLeg -2.389350 -6.298190 -1.704678
RightLeg 0.356698 -0.000000 -0.000000
RightFoot -11.679149 -5.045469 3.685158
RightToeBase 4.608697 -0.000000 -0.000000
LeftUpLeg -2.956353 2.091839 -0.166952
LeftLeg 2.328928 -0.000000 -0.000000
LeftFoot -10.634560 1.992738 -16.438010
LeftToeBase 8.079849 -0.000000 -0.000000
Spine -10.055732 -2.265723 -2.395377
RightShoulder -18.922751 -14.797436 -25.474612
RightArm 19.351382 32.062448 44.576317
RightForeArm -7.999526 0.000000 12.118633
RightHand 8.833277 -0.000000 5.083233
RightHandThumb1 -24.326973 -0.000000 -32.862282
LeftShoulder -24.569779 7.697788 28.382210
LeftArm 17.730743 -31.828608 -41.464767
LeftForeArm 1.185294 -0.000000 4.801446
LeftHand -3.956061 0.000000 5.432864
LeftHandThumb1 -26.253704 0.000000 33.147579
Head -0.689198 5.312328 -0.154889
67
root -2.319789 33.153172 0.512471 7.845011 -3.427236 3.101279
RightUpLeg -2.390286 -6.302549 -1.705238
RightLeg 0.357783 -0.000000 -0.000000
RightFoot -11.677617 -5.053843 3.684623
RightToeBase 4.607188 -0.000000 -0.000000
LeftUpLeg -2.959958 2.090040 -0.168910
LeftLeg 2.328076 -0.000000 -0.000000
LeftFoot -10.632286 1.986908 -16.452507
LeftToeBase 8.063043 -0.000000 -0.000000
Spine -10.045303 -2.270720 -2.401033
RightShoulder -18.925114 -14.806544 -25.468171
RightArm 19.369862 32.068265 44.580118
RightForeArm -7.986829 -0.000000 12.110851
RightHand 8.799573 -0.000000 5.085278
RightHandThumb1 -24.326973 -0.000000 -32.862282
LeftShoulder -24.583751 7.699343 28.388294
LeftArm 17.731387 -31.872894 -41.486459
LeftForeArm 1.212372 0.000000 4.813849
LeftHand -3.964843 -0.000000 5.442969
LeftHandThumb1 -26.253704 0.000000 33.147579
Head -0.692681 5.335110 -0.185566
68
root -2.318746 33.152778 0.513223 7.847648 -3.419941 3.103723
RightUpLeg -2.391432 -6.309466 -1.707429
RightLeg 0.363351 -0.000000 -0.000000
RightFoot -11.686298 -5.058644 3.701392
RightToeBase 4.962089 -0.000000 -0.000000
LeftUpLeg -2.962290 2.077791 -0.171954
LeftLeg 2.328864 -0.000000 -0.000000
LeftFoot -10.636024 1.988606 -16.447707
LeftToeBase 8.057877 -0.000000 -0.000000
Spine -10.039947 -2.256052 -2.404951
RightShoulder -18.931203 -14.820730 -25.483377
RightArm 19.371081 32.073571 44.595444
RightForeArm -7.981630 -0.000000 12.116189
RightHand 8.740332 -0.000000 5.104772
RightHandThumb1 -24.326973 -0.000000 -32.862282
LeftShoulder -24.585257 7.697949 28.377547
LeftArm 17.740943 -31.866135 -41.474750
LeftForeArm 1.178568 -0.000000 4.815469
LeftHand -3.973858 -0.000000 5.447629
LeftHandThumb1 -26.253704 0.000000 33.147579
Head -0.683542 5.286164 -0.197873
69
root -2.317712 33.153142 0.513881 7.851304 -3.409098 3.103308
RightUpLeg -2.390228 -6.315884 -1.707488
RightLeg 0.353919 -0.000000 -0.000000
RightFoot -11.676548 -5.060127 3.694381
RightToeBase 4.590405 -0.000000 -0.000000
LeftUpLeg -2.966512 2.066150 -0.172708
LeftLeg 2.329710 -0.000000 -0.000000
LeftFoot -10.637192 1.992266 -16.451958
LeftToeBase 8.069278 -0.000000 -0.000000
Spine -10.032701 -2.253644 -2.407286
RightShoulder -18.933765 -14.809521 -25.483710
RightArm 19.363941 32.062162 44.577246
RightForeArm -7.985729 -0.000000 12.103552
RightHand 8.753424 0.000000 5.106023
RightHandThumb1 -24.326973 -0.000000 -32.862282
LeftShoulder -24.594494 7.704840 28.375426
LeftArm 17.750908 -31.893260 -41.487961
LeftForeArm 1.189262 -0.000000 4.825621
LeftHand -3.959481 -0.000000 5.414427
LeftHandThumb1 -26.253704 0.000000 33.147579
Head -0.685555 5.307969 -0.223333
70
root -2.316993 33.152904 0.514802 7.854928 -3.401622 3.104044
RightUpLeg -2.385389 -6.317578 -1.708544
RightLeg 0.342060 -0.000000 -0.000000
RightFoot -11.675539 -5.063617 3.706761
RightToeBase 4.581428 -0.000000 -0.000000
LeftUpLeg -2.968173 2.056538 -0.174030
LeftLeg 2.326702 -0.000000 -0.000000
LeftFoot -10.636441 1.999958 -16.446333
LeftToeBase 8.059938 -0.000000 -0.000000
Spine -10.029016 -2.250823 -2.409195
RightShoulder -18.934081 -14.827905 -25.495768
RightArm 19.375991 32.084384 44.605657
RightForeArm -8.007341 -0.000000 12.122201
RightHand 8.738706 -0.000000 5.124331
RightHandThumb1 -24.326973 -0.000000 -32.862282
LeftShoulder -24.599735 7.694098 28.378351
LeftArm 17.736051 -31.883308 -41.475856
LeftForeArm 1.192655 -0.000000 4.834060
LeftHand -3.948200 -0.000000 5.401199
LeftHandThumb1 -26.253704 0.000000 33.147579
Head -0.682114 5.305425 -0.236979
71
root -2.315632 33.152796 0.516044 7.858411 -3.392210 3.105828
RightUpLeg -2.382510 -6.322737 -1.712313
RightLeg 0.342494 -0.000000 -0.000000
RightFoot -11.684343 -5.063560 3.720167
RightToeBase 4.978157 -0.000000 -0.000000
LeftUpLeg -2.969231 2.042039 -0.174258
LeftLeg 2.322406 -0.000000 -0.000000
LeftFoot -10.630617 1.992020 -16.444467
LeftToeBase 8.047193 -0.000000 -0.000000
Spine -10.028180 -2.237771 -2.414332
RightShoulder -18.930629 -14.840140 -25.501552
RightArm 19.361167 32.103475 44.606735
RightForeArm -8.009195 -0.000000 12.137980
RightHand 8.728236 -0.000000 5.117276
RightHandThumb1 -24.326973 -0.000000 -32.862282
LeftShoulder -24.609679 7.715782 28.367317
LeftArm 17.779499 -31.872653 -41.488859
LeftForeArm 1.163809 -0.000000 4.823479
LeftHand -3.936195 -0.000000 5.423074
LeftHandThumb1 -26.253704 0.000000 33.147579
Head -0.670649 5.304464 -0.241710
72
root -2.314597 33.152816 0.517418 7.863234 -3.388699 3.107208
RightUpLeg -2.383210 -6.313552 -1.715760
RightLeg 0.343136 -0.000000 -0.000000
RightFoot -11.690145 -5.068927 3.756650
RightToeBase 4.981788 -0.000000 -0.000000
LeftUpLeg -2.972587 2.041660 -0.178687
LeftLeg 2.323379 -0.000000 -0.000000
LeftFoot -10.632651 1.992541 -16.448038
LeftToeBase 8.044609 -0.000000 -0.000000
Spine -10.027686 -2.225647 -2.417374
RightShoulder -18.933644 -14.833339 -25.513915
RightArm 19.350215 32.096707 44.603834
RightForeArm -8.008061 -0.000000 12.139500
RightHand 8.749717 -0.000000 5.105383
RightHandThumb1 -24.326973 -0.000000 -32.862282
LeftShoulder -24.607109 7.716483 28.364440
LeftArm 17.763103 -31.847982 -41.471988
LeftForeArm 1.148871 0.000000 4.842095
LeftHand -3.954024 -0.000000 5.401835
LeftHandThumb1 -26.253704 0.000000 33.147579
Head -0.659948 5.310465 -0.259873
73
root -2.313206 33.152201 0.519161 7.876738 -3.376431 3.115969
RightUpLeg -2.386204 -6.323851 -1.724199
RightLeg 0.329728 -0.000000 -0.000000
RightFoot -11.695891 -5.078166 3.749709
RightToeBase 4.955789 -0.000000 -0.000000
LeftUpLeg -2.984687 2.037546 -0.189317
LeftLeg 2.322964 -0.000000 -0.000000
LeftFoot -10.631656 1.987832 -16.448747
LeftToeBase 8.042901 -0.000000 -0.000000
Spine -10.047053 -2.223284 -2.423751
RightShoulder -18.927802 -14.839525 -25.534053
RightArm 19.338009 32.092554 44.610077
RightForeArm -8.000619 -0.000000 12.158881
RightHand 8.727982 -0.000000 5.058018
RightHandThumb1 -24.326973 -0.000000 -32.862282
LeftShoulder -24.604627 7.732078 28.352590
LeftArm 17.775358 -31.836796 -41.458824
LeftForeArm 1.131495 -0.000000 4.832078
LeftHand -3.924669 -0.000000 5.370642
LeftHandThumb1 -26.253704 0.000000 33.147579
Head -0.625202 5.294157 -0.273350
74
root -2.312532 33.152178 0.521183 7.879075 -3.370215 3.115338
RightUpLeg -2.378072 -6.330289 -1.723600
RightLeg 0.316045 -0.000000 -0.000000
RightFoot -11.692826 -5.080310 3.740945
RightToeBase 5.002609 -0.000000 -0.000000
LeftUpLeg -2.984422 2.015053 -0.187802
LeftLeg 2.324787 -0.000000 -0.000000
LeftFoot -10.645070 2.001839 -16.451323
LeftToeBase 8.097450 -0.000000 -0.000000
Spine -10.042916 -2.211358 -2.428505
RightShoulder -18.935552 -14.841223 -25.530350
RightArm 19.337298 32.094756 44.602844
RightForeArm -7.979624 -0.000000 12.161448
RightHand 8.753842 -0.000000 5.066073
RightHandThumb1 -24.326973 -0.000000 -32.862282
LeftShoulder -24.614393 7.747096 28.353971
LeftArm 17.791003 -31.821307 -41.472974
LeftForeArm 1.122358 0.000000 4.838549
LeftHand -3.920914 -0.000000 5.388121
LeftHandThumb1 -26.253704 0.000000 33.147579
Head -0.616765 5.307081 -0.288773
75
root -2.311113 33.151944 0.523478 7.881709 -3.357073 3.117526
RightUpLeg -2.367174 -6.350015 -1.727827
RightLeg 0.297703 -0.000000 -0.000000
RightFoot -11.688020 -5.073485 3.732149
RightToeBase 4.627136 -0.000000 -0.000000
LeftUpLeg -2.986718 2.000291 -0.190481
LeftLeg 2.327678 -0.000000 -0.000000
LeftFoot -10.647989 1.996523 -16.453558
LeftToeBase 8.103624 -0.000000 -0.000000
Spine -10.041420 -2.213886 -2.427232
RightShoulder -18.935705 -14.840732 -25.536884
RightArm 19.340102 32.101064 44.601556
RightForeArm -7.967527 -0.000000 12.166977
RightHand 8.756902 -0.000000 5.063236
RightHandThumb1 -24.326973 -0.000000 -32.862282
LeftShoulder -24.622687 7.753373 28.347781
LeftArm 17.786648 -31.830025 -41.472689
LeftForeArm 1.095866 -0.000000 4.852745
LeftHand -3.878665 -0.000000 5.344222
LeftHandThumb1 -26.253704 0.000000 33.147579
Head -0.602919 5.320192 -0.305827
